<svg xmlns="http://www.w3.org/2000/svg" viewBox="0 0 560 520" width="560" height="520" font-family="Helvetica, Arial, sans-serif" font-size="11">
<rect width="560" height="520" fill="white"/>
<text x="56" y="16" font-size="13" font-weight="bold">Reliability: market reference price</text>
<text x="56" y="29" fill="#555">confirmatory: 1,776 instances, 731 events (95% event-cluster intervals)</text>
<line x1="56.0" y1="34" x2="56.0" y2="400" stroke="#eee"/>
<line x1="56" y1="400.0" x2="544" y2="400.0" stroke="#eee"/>
<text x="56.0" y="414" text-anchor="middle">0</text>
<text x="50" y="404.0" text-anchor="end">0</text>
<line x1="178.0" y1="34" x2="178.0" y2="400" stroke="#eee"/>
<line x1="56" y1="308.5" x2="544" y2="308.5" stroke="#eee"/>
<text x="178.0" y="414" text-anchor="middle">0.25</text>
<text x="50" y="312.5" text-anchor="end">0.25</text>
<line x1="300.0" y1="34" x2="300.0" y2="400" stroke="#eee"/>
<line x1="56" y1="217.0" x2="544" y2="217.0" stroke="#eee"/>
<text x="300.0" y="414" text-anchor="middle">0.5</text>
<text x="50" y="221.0" text-anchor="end">0.5</text>
<line x1="422.0" y1="34" x2="422.0" y2="400" stroke="#eee"/>
<line x1="56" y1="125.5" x2="544" y2="125.5" stroke="#eee"/>
<text x="422.0" y="414" text-anchor="middle">0.75</text>
<text x="50" y="129.5" text-anchor="end">0.75</text>
<line x1="544.0" y1="34" x2="544.0" y2="400" stroke="#eee"/>
<line x1="56" y1="34.0" x2="544" y2="34.0" stroke="#eee"/>
<text x="544.0" y="414" text-anchor="middle">1</text>
<text x="50" y="38.0" text-anchor="end">1</text>
<rect x="56" y="34" width="488" height="366" fill="none" stroke="#999"/>
<line x1="56.0" y1="400.0" x2="544.0" y2="34.0" stroke="#888" stroke-dasharray="5,4"/>
<text x="300.0" y="430" text-anchor="middle">mean forecast</text>
<text transform="translate(14,217.0) rotate(-90)" text-anchor="middle">frequency of YES</text>
<polyline points="71.8,392.2 125.4,348.5 173.4,309.7 224.8,274.4 274.0,242.2 319.6,218.9 373.8,165.3 420.4,106.4 469.9,115.9 530.8,54.6" fill="none" stroke="#1f6feb" stroke-opacity="0.5"/>
<line x1="71.8" y1="396.3" x2="71.8" y2="387.3" stroke="#1f6feb"/>
<circle cx="71.8" cy="392.2" r="3.2" fill="#1f6feb"/>
<line x1="125.4" y1="367.6" x2="125.4" y2="326.4" stroke="#1f6feb"/>
<circle cx="125.4" cy="348.5" r="3.2" fill="#1f6feb"/>
<line x1="173.4" y1="344.3" x2="173.4" y2="273.5" stroke="#1f6feb"/>
<circle cx="173.4" cy="309.7" r="3.2" fill="#1f6feb"/>
<line x1="224.8" y1="312.3" x2="224.8" y2="236.7" stroke="#1f6feb"/>
<circle cx="224.8" cy="274.4" r="3.2" fill="#1f6feb"/>
<line x1="274.0" y1="280.2" x2="274.0" y2="202.2" stroke="#1f6feb"/>
<circle cx="274.0" cy="242.2" r="3.2" fill="#1f6feb"/>
<line x1="319.6" y1="262.8" x2="319.6" y2="175.1" stroke="#1f6feb"/>
<circle cx="319.6" cy="218.9" r="3.2" fill="#1f6feb"/>
<line x1="373.8" y1="207.6" x2="373.8" y2="119.4" stroke="#1f6feb"/>
<circle cx="373.8" cy="165.3" r="3.2" fill="#1f6feb"/>
<line x1="420.4" y1="151.9" x2="420.4" y2="65.5" stroke="#1f6feb"/>
<circle cx="420.4" cy="106.4" r="3.2" fill="#1f6feb"/>
<line x1="469.9" y1="163.2" x2="469.9" y2="74.0" stroke="#1f6feb"/>
<circle cx="469.9" cy="115.9" r="3.2" fill="#1f6feb"/>
<line x1="530.8" y1="69.6" x2="530.8" y2="41.8" stroke="#1f6feb"/>
<circle cx="530.8" cy="54.6" r="3.2" fill="#1f6feb"/>
<rect x="67.8" y="440.0" width="4" height="44.0" fill="#1f6feb" fill-opacity="0.6"/>
<rect x="121.4" y="468.5" width="4" height="15.5" fill="#1f6feb" fill-opacity="0.6"/>
<rect x="169.4" y="472.0" width="4" height="12.0" fill="#1f6feb" fill-opacity="0.6"/>
<rect x="220.8" y="473.3" width="4" height="10.7" fill="#1f6feb" fill-opacity="0.6"/>
<rect x="270.0" y="475.5" width="4" height="8.5" fill="#1f6feb" fill-opacity="0.6"/>
<rect x="315.6" y="476.6" width="4" height="7.4" fill="#1f6feb" fill-opacity="0.6"/>
<rect x="369.8" y="476.8" width="4" height="7.2" fill="#1f6feb" fill-opacity="0.6"/>
<rect x="416.4" y="476.9" width="4" height="7.1" fill="#1f6feb" fill-opacity="0.6"/>
<rect x="465.9" y="478.8" width="4" height="5.2" fill="#1f6feb" fill-opacity="0.6"/>
<rect x="526.8" y="463.3" width="4" height="20.7" fill="#1f6feb" fill-opacity="0.6"/>
<rect x="64" y="498" width="10" height="10" fill="#1f6feb"/>
<text x="80" y="507">market price</text>
<text x="56" y="496" fill="#555">forecasts per bin (bars)</text>
</svg>
