<svg xmlns="http://www.w3.org/2000/svg" viewBox="0 0 560 520" width="560" height="520" font-family="Helvetica, Arial, sans-serif" font-size="11">
<rect width="560" height="520" fill="white"/>
<text x="56" y="16" font-size="13" font-weight="bold">Reliability: market reference price</text>
<text x="56" y="29" fill="#555">confirmatory: 1,776 instances, 731 events (95% event-cluster intervals)</text>
<line x1="56.0" y1="34" x2="56.0" y2="400" stroke="#eee"/>
<line x1="56" y1="400.0" x2="544" y2="400.0" stroke="#eee"/>
<text x="56.0" y="414" text-anchor="middle">0</text>
<text x="50" y="404.0" text-anchor="end">0</text>
<line x1="178.0" y1="34" x2="178.0" y2="400" stroke="#eee"/>
<line x1="56" y1="308.5" x2="544" y2="308.5" stroke="#eee"/>
<text x="178.0" y="414" text-anchor="middle">0.25</text>
<text x="50" y="312.5" text-anchor="end">0.25</text>
<line x1="300.0" y1="34" x2="300.0" y2="400" stroke="#eee"/>
<line x1="56" y1="217.0" x2="544" y2="217.0" stroke="#eee"/>
<text x="300.0" y="414" text-anchor="middle">0.5</text>
<text x="50" y="221.0" text-anchor="end">0.5</text>
<line x1="422.0" y1="34" x2="422.0" y2="400" stroke="#eee"/>
<line x1="56" y1="125.5" x2="544" y2="125.5" stroke="#eee"/>
<text x="422.0" y="414" text-anchor="middle">0.75</text>
<text x="50" y="129.5" text-anchor="end">0.75</text>
<line x1="544.0" y1="34" x2="544.0" y2="400" stroke="#eee"/>
<line x1="56" y1="34.0" x2="544" y2="34.0" stroke="#eee"/>
<text x="544.0" y="414" text-anchor="middle">1</text>
<text x="50" y="38.0" text-anchor="end">1</text>
<rect x="56" y="34" width="488" height="366" fill="none" stroke="#999"/>
<line x1="56.0" y1="400.0" x2="544.0" y2="34.0" stroke="#888" stroke-dasharray="5,4"/>
<text x="300.0" y="430" text-anchor="middle">mean forecast</text>
<text transform="translate(14,217.0) rotate(-90)" text-anchor="middle">frequency of YES</text>
<polyline points="71.3,392.3 125.8,347.7 173.9,312.5 224.7,265.9 273.7,240.7 319.5,220.8 373.8,159.9 420.3,109.6 469.9,108.3 530.0,54.8" fill="none" stroke="#1f6feb" stroke-opacity="0.5"/>
<line x1="71.3" y1="396.2" x2="71.3" y2="387.2" stroke="#1f6feb"/>
<circle cx="71.3" cy="392.3" r="3.2" fill="#1f6feb"/>
<line x1="125.8" y1="367.7" x2="125.8" y2="323.8" stroke="#1f6feb"/>
<circle cx="125.8" cy="347.7" r="3.2" fill="#1f6feb"/>
<line x1="173.9" y1="345.3" x2="173.9" y2="278.0" stroke="#1f6feb"/>
<circle cx="173.9" cy="312.5" r="3.2" fill="#1f6feb"/>
<line x1="224.7" y1="305.4" x2="224.7" y2="222.9" stroke="#1f6feb"/>
<circle cx="224.7" cy="265.9" r="3.2" fill="#1f6feb"/>
<line x1="273.7" y1="280.3" x2="273.7" y2="201.3" stroke="#1f6feb"/>
<circle cx="273.7" cy="240.7" r="3.2" fill="#1f6feb"/>
<line x1="319.5" y1="264.6" x2="319.5" y2="177.4" stroke="#1f6feb"/>
<circle cx="319.5" cy="220.8" r="3.2" fill="#1f6feb"/>
<line x1="373.8" y1="207.9" x2="373.8" y2="116.2" stroke="#1f6feb"/>
<circle cx="373.8" cy="159.9" r="3.2" fill="#1f6feb"/>
<line x1="420.3" y1="152.3" x2="420.3" y2="67.7" stroke="#1f6feb"/>
<circle cx="420.3" cy="109.6" r="3.2" fill="#1f6feb"/>
<line x1="469.9" y1="154.3" x2="469.9" y2="67.8" stroke="#1f6feb"/>
<circle cx="469.9" cy="108.3" r="3.2" fill="#1f6feb"/>
<line x1="530.0" y1="70.2" x2="530.0" y2="41.9" stroke="#1f6feb"/>
<circle cx="530.0" cy="54.8" r="3.2" fill="#1f6feb"/>
<rect x="67.3" y="440.0" width="4" height="44.0" fill="#1f6feb" fill-opacity="0.6"/>
<rect x="121.8" y="468.9" width="4" height="15.1" fill="#1f6feb" fill-opacity="0.6"/>
<rect x="169.9" y="471.8" width="4" height="12.2" fill="#1f6feb" fill-opacity="0.6"/>
<rect x="220.7" y="473.9" width="4" height="10.1" fill="#1f6feb" fill-opacity="0.6"/>
<rect x="269.7" y="475.7" width="4" height="8.3" fill="#1f6feb" fill-opacity="0.6"/>
<rect x="315.5" y="476.6" width="4" height="7.4" fill="#1f6feb" fill-opacity="0.6"/>
<rect x="369.8" y="476.9" width="4" height="7.1" fill="#1f6feb" fill-opacity="0.6"/>
<rect x="416.3" y="476.9" width="4" height="7.1" fill="#1f6feb" fill-opacity="0.6"/>
<rect x="465.9" y="479.1" width="4" height="4.9" fill="#1f6feb" fill-opacity="0.6"/>
<rect x="526.0" y="463.7" width="4" height="20.3" fill="#1f6feb" fill-opacity="0.6"/>
<rect x="64" y="498" width="10" height="10" fill="#1f6feb"/>
<text x="80" y="507">market price</text>
<text x="56" y="496" fill="#555">forecasts per bin (bars)</text>
</svg>
